<?xml version="1.0" encoding="UTF-8" standalone="no"?>
<!-- Created with Inkscape (http://www.inkscape.org/) -->

<svg
   width="256"
   height="256"
   viewBox="0 0 67.733332 67.733333"
   version="1.1"
   id="svg1"
   xml:space="preserve"
   xmlns="http://www.w3.org/2000/svg"
   xmlns:svg="http://www.w3.org/2000/svg"><defs
     id="defs1" /><g
     id="layer1"><rect
       style="fill:#000000;stroke-width:0.265;stroke-dasharray:none"
       id="rect1"
       width="67.73333"
       height="67.73333"
       x="0"
       y="0"
       rx="6.6145835"
       ry="6.6145835" /></g><g
     id="layer2"><path
       d="m 55.033333,14.885372 v 14.033151 c 0,1.637197 -1.17592,3.274395 -2.822223,3.508286 v 12.395944 c 0,3.040522 -1.881475,8.887664 -8.93703,8.887664 h -3.527777 c 0.940737,-0.935539 1.881475,-2.104971 2.351847,-3.508287 h 1.17593 c 4.93889,0 5.17407,-4.443828 5.17407,-5.145485 V 32.426809 C 46.801858,32.192908 45.62593,30.789602 45.62593,28.918523 V 14.885372 c 0,-1.871089 1.646293,-3.508288 3.527778,-3.508288 h 2.351847 c 1.881485,0 3.527778,1.637199 3.527778,3.508288 M 40.451858,46.927726 c 0,3.508286 -2.822223,6.54881 -6.58519,6.54881 h -9.407405 c -7.055555,0 -8.93704,-5.847152 -8.93704,-8.887666 V 32.426809 C 13.87593,32.192908 12.7,30.55572 12.7,28.918523 V 14.885372 c 0,-1.871089 1.646303,-3.508288 3.527778,-3.508288 h 2.351857 c 1.881475,0 3.527778,1.637199 3.527778,3.508288 v 14.033151 c 0,1.637197 -1.175928,3.274395 -2.822223,3.508286 v 12.395944 c 0,0.935549 0.2352,5.145495 5.174073,5.145495 h 3.76296 c -0.4704,-0.935549 -0.705513,-1.87109 -0.705513,-2.806631 V 23.773029 c 0,-3.508288 2.822223,-6.548803 6.585193,-6.548803 3.76296,0 6.35,2.806631 6.35,6.548803 m -3.76297,-0.233901 c 0,-1.403315 -1.17592,-2.806631 -2.822223,-2.806631 -1.646292,0 -2.82222,1.403316 -2.82222,2.806631 v 23.38858 c 0,1.637206 1.41111,2.806629 2.82222,2.806629 1.411113,0 2.822223,-1.403314 2.822223,-2.806629 z"
       id="path1"
       style="fill:#ffffff;stroke-width:2.34534" /></g></svg>
